G04*
G04 #@! TF.GenerationSoftware,Altium Limited,Altium Designer,21.6.4 (81)*
G04*
G04 Layer_Color=16711935*
%FSLAX43Y43*%
%MOMM*%
G71*
G04*
G04 #@! TF.SameCoordinates,1BFCAD30-3443-4AAB-B7F7-DC6525A64C66*
G04*
G04*
G04 #@! TF.FilePolarity,Positive*
G04*
G01*
G75*
%ADD10C,0.250*%
%ADD13C,0.254*%
%ADD87C,0.013*%
%ADD88C,0.127*%
%ADD89C,0.500*%
D10*
X61466Y177561D02*
G03*
X61216Y177561I-125J0D01*
G01*
D02*
G03*
X61466Y177561I125J0D01*
G01*
Y53061D02*
G03*
X61216Y53061I-125J0D01*
G01*
D02*
G03*
X61466Y53061I125J0D01*
G01*
X246466Y177561D02*
G03*
X246216Y177561I-125J0D01*
G01*
D02*
G03*
X246466Y177561I125J0D01*
G01*
Y53061D02*
G03*
X246216Y53061I-125J0D01*
G01*
D02*
G03*
X246466Y53061I125J0D01*
G01*
Y177561D02*
G03*
X246216Y177561I-125J0D01*
G01*
D02*
G03*
X246466Y177561I125J0D01*
G01*
X61466D02*
G03*
X61216Y177561I-125J0D01*
G01*
D02*
G03*
X61466Y177561I125J0D01*
G01*
X246466Y53061D02*
G03*
X246216Y53061I-125J0D01*
G01*
D02*
G03*
X246466Y53061I125J0D01*
G01*
X61466D02*
G03*
X61216Y53061I-125J0D01*
G01*
D02*
G03*
X61466Y53061I125J0D01*
G01*
D13*
X242900Y57963D02*
G03*
X242900Y57963I-2540J0D01*
G01*
X76022Y152621D02*
G03*
X76022Y152621I-1092J0D01*
G01*
Y127621D02*
G03*
X76022Y127621I-1092J0D01*
G01*
X77086Y165180D02*
G03*
X77086Y165180I-1000J0D01*
G01*
X77199Y173823D02*
G03*
X77199Y173823I-1000J0D01*
G01*
X198714Y164871D02*
G03*
X198714Y164871I-1000J0D01*
G01*
X229829Y165329D02*
G03*
X229829Y165329I-1000J0D01*
G01*
X229702Y173838D02*
G03*
X229702Y173838I-1000J0D01*
G01*
X198643Y173722D02*
G03*
X198643Y173722I-1000J0D01*
G01*
X167916Y165154D02*
G03*
X167916Y165154I-1000J0D01*
G01*
X167922Y174005D02*
G03*
X167922Y174005I-1000J0D01*
G01*
X137804Y164821D02*
G03*
X137804Y164821I-1000J0D01*
G01*
X138013Y173367D02*
G03*
X138013Y173367I-1000J0D01*
G01*
X107807Y164897D02*
G03*
X107807Y164897I-1000J0D01*
G01*
X107985Y173482D02*
G03*
X107985Y173482I-1000J0D01*
G01*
X242900Y155931D02*
G03*
X242900Y155931I-2540J0D01*
G01*
X76022Y88621D02*
G03*
X76022Y88621I-1092J0D01*
G01*
X76018Y63614D02*
G03*
X76018Y63614I-1092J0D01*
G01*
X75972Y95631D02*
G03*
X75972Y95631I-1092J0D01*
G01*
X76022Y120621D02*
G03*
X76022Y120621I-1092J0D01*
G01*
X68529Y156058D02*
G03*
X68529Y156058I-2540J0D01*
G01*
X68732Y57963D02*
G03*
X68732Y57963I-2540J0D01*
G01*
D87*
X76117Y152621D02*
G03*
X76117Y152621I-1200J0D01*
G01*
Y127621D02*
G03*
X76117Y127621I-1200J0D01*
G01*
Y120621D02*
G03*
X76117Y120621I-1200J0D01*
G01*
Y95621D02*
G03*
X76117Y95621I-1200J0D01*
G01*
Y88621D02*
G03*
X76117Y88621I-1200J0D01*
G01*
X76130Y63621D02*
G03*
X76130Y63621I-1200J0D01*
G01*
X213962Y164925D02*
G03*
X215962Y164924I1000J-1D01*
G01*
Y174924D02*
G03*
X213962Y174925I-1000J1D01*
G01*
X181871Y164925D02*
G03*
X183871Y164924I1000J-1D01*
G01*
X183871Y174924D02*
G03*
X181871Y174925I-1000J1D01*
G01*
X151051Y164925D02*
G03*
X153051Y164924I1000J-1D01*
G01*
Y174924D02*
G03*
X151051Y174925I-1000J1D01*
G01*
X120493Y164925D02*
G03*
X122493Y164924I1000J-1D01*
G01*
Y174924D02*
G03*
X120493Y174925I-1000J1D01*
G01*
X90322Y164925D02*
G03*
X92322Y164924I1000J-1D01*
G01*
Y174924D02*
G03*
X90322Y174925I-1000J1D01*
G01*
X243631Y160621D02*
G03*
X243609Y162620I26J1000D01*
G01*
X63704D02*
G03*
X63682Y160621I-48J-999D01*
G01*
X215962Y164924D02*
Y174924D01*
X213962Y164925D02*
Y174925D01*
X183871Y164924D02*
Y174924D01*
X181871Y164925D02*
Y174925D01*
X153051Y164924D02*
Y174924D01*
X151051Y164925D02*
Y174925D01*
X122493Y164924D02*
Y174924D01*
X120493Y164925D02*
Y174925D01*
X92322Y164924D02*
Y174924D01*
X90322Y164925D02*
Y174925D01*
X243609Y162620D02*
X243704D01*
X63609D02*
X243609D01*
X232354Y160621D02*
X243631D01*
X63631D02*
X243631D01*
D88*
X105985Y173925D02*
D03*
X107985D02*
D03*
X105807Y164924D02*
D03*
X107807D02*
D03*
X136013Y173925D02*
D03*
X138013D02*
D03*
X135804Y164924D02*
D03*
X137804D02*
D03*
X165922Y173925D02*
D03*
X167922D02*
D03*
X165916Y164924D02*
D03*
X167916D02*
D03*
X196643Y173925D02*
D03*
X198643D02*
D03*
X227702D02*
D03*
X229702D02*
D03*
X227829Y164924D02*
D03*
X229829D02*
D03*
X196714D02*
D03*
X198714D02*
D03*
X75199Y173925D02*
D03*
X77199D02*
D03*
X75086Y164924D02*
D03*
X77086D02*
D03*
D89*
X61341Y53061D02*
X246341D01*
X61341Y177561D02*
X246341D01*
Y53061D02*
Y177561D01*
X61341Y53061D02*
Y177561D01*
Y53061D02*
Y177561D01*
X246341Y53061D02*
Y177561D01*
X61341D02*
X246341D01*
X61341Y53061D02*
X246341D01*
M02*
