G04*
G04 #@! TF.GenerationSoftware,Altium Limited,Altium Designer,21.6.4 (81)*
G04*
G04 Layer_Color=16711935*
%FSLAX43Y43*%
%MOMM*%
G71*
G04*
G04 #@! TF.SameCoordinates,1BFCAD30-3443-4AAB-B7F7-DC6525A64C66*
G04*
G04*
G04 #@! TF.FilePolarity,Negative*
G04*
G01*
G75*
%ADD21R,1.207X1.508*%
%ADD24R,1.508X1.207*%
%ADD26R,1.556X1.505*%
G04:AMPARAMS|DCode=30|XSize=1.607mm|YSize=0.762mm|CornerRadius=0.381mm|HoleSize=0mm|Usage=FLASHONLY|Rotation=0.000|XOffset=0mm|YOffset=0mm|HoleType=Round|Shape=RoundedRectangle|*
%AMROUNDEDRECTD30*
21,1,1.607,0.000,0,0,0.0*
21,1,0.845,0.762,0,0,0.0*
1,1,0.762,0.422,0.000*
1,1,0.762,-0.422,0.000*
1,1,0.762,-0.422,0.000*
1,1,0.762,0.422,0.000*
%
%ADD30ROUNDEDRECTD30*%
%ADD31R,1.607X0.762*%
%ADD32R,1.505X1.556*%
%ADD38C,4.500*%
%ADD39C,4.000*%
%ADD41C,2.489*%
%ADD42C,2.057*%
%ADD43R,2.057X2.057*%
%ADD44R,1.524X1.524*%
%ADD45C,1.524*%
%ADD46R,1.575X1.575*%
%ADD47C,1.575*%
%ADD48R,1.200X1.200*%
%ADD49C,1.200*%
%ADD50R,1.200X1.200*%
%ADD51R,1.703X1.703*%
%ADD52C,1.703*%
%ADD53C,1.727*%
G04:AMPARAMS|DCode=54|XSize=2.153mm|YSize=2.153mm|CornerRadius=0.589mm|HoleSize=0mm|Usage=FLASHONLY|Rotation=270.000|XOffset=0mm|YOffset=0mm|HoleType=Round|Shape=RoundedRectangle|*
%AMROUNDEDRECTD54*
21,1,2.153,0.975,0,0,270.0*
21,1,0.975,2.153,0,0,270.0*
1,1,1.178,-0.488,-0.488*
1,1,1.178,-0.488,0.488*
1,1,1.178,0.488,0.488*
1,1,1.178,0.488,-0.488*
%
%ADD54ROUNDEDRECTD54*%
%ADD55C,2.153*%
%ADD56O,2.203X1.203*%
%ADD57O,2.203X1.203*%
%ADD58R,2.050X2.050*%
%ADD59C,2.050*%
%ADD60C,2.203*%
%ADD61C,1.473*%
%ADD77R,1.200X1.100*%
%ADD78R,1.100X1.200*%
%ADD81R,8.503X30.150*%
%ADD82R,8.458X28.677*%
%ADD83R,8.477X28.899*%
%ADD84R,2.203X4.303*%
%ADD85R,0.703X1.203*%
%ADD86R,7.703X3.203*%
D21*
X206391Y120726D02*
D03*
X208493D02*
D03*
X206416Y124841D02*
D03*
X208518D02*
D03*
X206366Y128499D02*
D03*
X208467D02*
D03*
X175378Y132537D02*
D03*
X177479D02*
D03*
D24*
X166802Y134458D02*
D03*
Y136560D02*
D03*
X166776Y139538D02*
D03*
Y141640D02*
D03*
X178359Y140141D02*
D03*
Y138040D02*
D03*
X166980Y102251D02*
D03*
Y104353D02*
D03*
X166802Y107829D02*
D03*
Y109931D02*
D03*
X178537Y108290D02*
D03*
Y106188D02*
D03*
X167030Y67834D02*
D03*
Y69936D02*
D03*
Y72863D02*
D03*
Y74965D02*
D03*
X178867Y74127D02*
D03*
Y72025D02*
D03*
X210058Y152054D02*
D03*
Y149952D02*
D03*
X210109Y147964D02*
D03*
Y145863D02*
D03*
X210160Y144205D02*
D03*
Y142104D02*
D03*
X166726Y150130D02*
D03*
Y152232D02*
D03*
X166751Y155810D02*
D03*
Y157912D02*
D03*
Y145202D02*
D03*
Y147304D02*
D03*
X166802Y128911D02*
D03*
Y131013D02*
D03*
X182093Y146345D02*
D03*
Y148447D02*
D03*
X182169Y140294D02*
D03*
Y138192D02*
D03*
X178359Y148488D02*
D03*
Y146387D02*
D03*
X150597Y129912D02*
D03*
Y132013D02*
D03*
X166802Y118447D02*
D03*
Y120548D02*
D03*
Y123765D02*
D03*
Y125866D02*
D03*
X166827Y113417D02*
D03*
Y115519D02*
D03*
X166954Y96561D02*
D03*
Y98663D02*
D03*
X182194Y114637D02*
D03*
Y116738D02*
D03*
X182245Y108299D02*
D03*
Y106197D02*
D03*
X178613Y116738D02*
D03*
Y114637D02*
D03*
X150774Y96901D02*
D03*
Y99003D02*
D03*
X167132Y83464D02*
D03*
Y85566D02*
D03*
X167183Y89154D02*
D03*
Y91256D02*
D03*
X167132Y78527D02*
D03*
Y80629D02*
D03*
X167030Y62348D02*
D03*
Y64449D02*
D03*
X182245Y79645D02*
D03*
Y81747D02*
D03*
X182270Y74177D02*
D03*
Y72076D02*
D03*
X178816Y81721D02*
D03*
Y79620D02*
D03*
X151257Y64761D02*
D03*
Y66862D02*
D03*
D26*
X210795Y130288D02*
D03*
Y128487D02*
D03*
Y126555D02*
D03*
Y124753D02*
D03*
X210896Y122491D02*
D03*
Y120689D02*
D03*
X159131Y76593D02*
D03*
Y74791D02*
D03*
X164008Y71134D02*
D03*
Y72935D02*
D03*
X148539Y86106D02*
D03*
Y87908D02*
D03*
X158369Y111250D02*
D03*
Y109449D02*
D03*
X163119Y105982D02*
D03*
Y107784D02*
D03*
X147930Y118948D02*
D03*
Y120750D02*
D03*
X158445Y145427D02*
D03*
Y143625D02*
D03*
X163805Y137822D02*
D03*
Y139624D02*
D03*
X148158Y153480D02*
D03*
Y155282D02*
D03*
D30*
X197460Y134925D02*
D03*
X197409Y138379D02*
D03*
Y141681D02*
D03*
D31*
X194109Y134925D02*
D03*
X194058Y138379D02*
D03*
Y141681D02*
D03*
D32*
X206033Y142138D02*
D03*
X207835D02*
D03*
X205945Y145821D02*
D03*
X207747D02*
D03*
X206084Y149860D02*
D03*
X207885D02*
D03*
D38*
X136830Y164821D02*
G03*
X136830Y164821I-25J0D01*
G01*
X76136Y165180D02*
G03*
X76136Y165180I-25J0D01*
G01*
X76201Y173793D02*
G03*
X76201Y173793I-25J0D01*
G01*
X197739Y164871D02*
G03*
X197739Y164871I-25J0D01*
G01*
X228803Y165329D02*
G03*
X228803Y165329I-25J0D01*
G01*
X228721Y173851D02*
G03*
X228721Y173851I-25J0D01*
G01*
X197637Y173736D02*
G03*
X197637Y173736I-25J0D01*
G01*
X166941Y165154D02*
G03*
X166941Y165154I-25J0D01*
G01*
Y174019D02*
G03*
X166941Y174019I-25J0D01*
G01*
X137033Y173380D02*
G03*
X137033Y173380I-25J0D01*
G01*
X106832Y164922D02*
G03*
X106832Y164922I-25J0D01*
G01*
X107005Y173496D02*
G03*
X107005Y173496I-25J0D01*
G01*
D39*
X68116Y57912D02*
G03*
X68116Y57912I-2000J0D01*
G01*
X68015Y155981D02*
G03*
X68015Y155981I-2000J0D01*
G01*
X242436Y155905D02*
G03*
X242436Y155905I-2000J0D01*
G01*
X242360Y58064D02*
G03*
X242360Y58064I-2000J0D01*
G01*
D41*
X81915Y75159D02*
D03*
X81559Y108255D02*
D03*
X82144Y140081D02*
D03*
X97485Y138303D02*
D03*
X97841Y104242D02*
D03*
X97739Y70460D02*
D03*
X97790Y67361D02*
D03*
X109169Y141122D02*
D03*
X66599Y93193D02*
D03*
X137973Y82804D02*
D03*
X137693Y116967D02*
D03*
X137262Y153721D02*
D03*
X178841Y76886D02*
D03*
X161595Y70841D02*
D03*
X156261Y65151D02*
D03*
X141122Y68656D02*
D03*
X141275Y76378D02*
D03*
X163754Y78486D02*
D03*
X164313Y67793D02*
D03*
X109118Y73203D02*
D03*
X124663Y64465D02*
D03*
X152476Y86944D02*
D03*
X145517Y83947D02*
D03*
X155194Y89560D02*
D03*
X186035Y76601D02*
D03*
X218999Y154711D02*
D03*
X178537Y111531D02*
D03*
X160147Y105334D02*
D03*
X156769Y97384D02*
D03*
X140538Y96850D02*
D03*
X140589Y110820D02*
D03*
X162966Y113360D02*
D03*
X164186Y100482D02*
D03*
X109169Y107645D02*
D03*
X97917Y101194D02*
D03*
X123673Y98476D02*
D03*
X151943Y120548D02*
D03*
X145288Y116865D02*
D03*
X154407Y123165D02*
D03*
X185965Y111531D02*
D03*
X218186Y92075D02*
D03*
X218211Y95529D02*
D03*
X159791Y138201D02*
D03*
X156312Y129946D02*
D03*
X140564Y144653D02*
D03*
X163627Y144907D02*
D03*
X163144Y132867D02*
D03*
X123426Y132296D02*
D03*
X97485Y135204D02*
D03*
X152197Y154635D02*
D03*
X156769Y156185D02*
D03*
X145202Y153390D02*
D03*
X186106Y143281D02*
D03*
X178435Y143434D02*
D03*
X241732Y130886D02*
D03*
X238862Y110211D02*
D03*
X143485Y129591D02*
D03*
X236245Y149073D02*
D03*
D42*
X86817Y151359D02*
D03*
X86131Y86944D02*
D03*
X218872Y60071D02*
D03*
X241808Y83464D02*
D03*
D43*
X86817Y129464D02*
D03*
X86131Y65049D02*
D03*
X218872Y81966D02*
D03*
X241808Y105359D02*
D03*
D44*
X194589Y65227D02*
D03*
D45*
X202108D02*
D03*
D46*
X122657Y84176D02*
D03*
X122860Y153035D02*
D03*
X122276Y117983D02*
D03*
D47*
X93955Y84176D02*
D03*
X94158Y153035D02*
D03*
X93574Y117983D02*
D03*
D48*
X171755Y145974D02*
D03*
X171526Y114249D02*
D03*
X171379Y79299D02*
D03*
X171425Y63602D02*
D03*
X171425Y84785D02*
D03*
X171526Y97892D02*
D03*
Y119939D02*
D03*
X212776Y94793D02*
D03*
X171648Y130124D02*
D03*
X171679Y151511D02*
D03*
D49*
X171755Y143434D02*
D03*
Y140894D02*
D03*
X171526Y111709D02*
D03*
Y109169D02*
D03*
X171379Y76759D02*
D03*
Y74219D02*
D03*
X126238Y73279D02*
D03*
X123698D02*
D03*
X171425Y68682D02*
D03*
Y66142D02*
D03*
X171425Y89865D02*
D03*
Y87325D02*
D03*
X125679Y107066D02*
D03*
X123139D02*
D03*
X171526Y102972D02*
D03*
Y100432D02*
D03*
Y125019D02*
D03*
Y122479D02*
D03*
X212776Y89713D02*
D03*
Y92253D02*
D03*
X125578Y141757D02*
D03*
X123038D02*
D03*
X171648Y135204D02*
D03*
Y132664D02*
D03*
X171679Y156591D02*
D03*
Y154051D02*
D03*
D50*
X121158Y73279D02*
D03*
X120599Y107066D02*
D03*
X120498Y141757D02*
D03*
D51*
X156993Y171933D02*
D03*
X218923Y171856D02*
D03*
X187808Y171831D02*
D03*
X126665Y171755D02*
D03*
X64922Y171831D02*
D03*
X96317D02*
D03*
X202941Y127356D02*
D03*
X202844Y148412D02*
D03*
X182296Y69012D02*
D03*
X182194Y89865D02*
D03*
X182296Y102997D02*
D03*
X182118Y124943D02*
D03*
X182143Y135052D02*
D03*
X181961Y156642D02*
D03*
D52*
X156993Y169393D02*
D03*
Y166853D02*
D03*
X218923Y169316D02*
D03*
Y166776D02*
D03*
X187808Y169291D02*
D03*
Y166751D02*
D03*
X126665Y169215D02*
D03*
Y166675D02*
D03*
X64922Y169291D02*
D03*
Y166751D02*
D03*
X96317Y169291D02*
D03*
Y166751D02*
D03*
X202941Y109576D02*
D03*
Y112116D02*
D03*
Y117196D02*
D03*
Y122276D02*
D03*
Y124816D02*
D03*
Y119736D02*
D03*
Y114656D02*
D03*
X202844Y130632D02*
D03*
Y133172D02*
D03*
Y138252D02*
D03*
Y143332D02*
D03*
Y145872D02*
D03*
Y140792D02*
D03*
Y135712D02*
D03*
X182296Y66472D02*
D03*
Y63932D02*
D03*
X182194Y87325D02*
D03*
Y84785D02*
D03*
X182296Y100457D02*
D03*
Y97917D02*
D03*
X182118Y122403D02*
D03*
Y119863D02*
D03*
X182143Y132512D02*
D03*
Y129972D02*
D03*
X181961Y154102D02*
D03*
Y151562D02*
D03*
D53*
X117130Y74447D02*
D03*
X114630D02*
D03*
X116611Y108255D02*
D03*
X114111D02*
D03*
X116419Y143002D02*
D03*
X113919D02*
D03*
X153391Y64124D02*
D03*
Y66624D02*
D03*
X153467Y129794D02*
D03*
Y132294D02*
D03*
Y96698D02*
D03*
Y99198D02*
D03*
D54*
X66896Y77252D02*
D03*
X67175Y142810D02*
D03*
X66540Y110857D02*
D03*
X239133Y71668D02*
D03*
D55*
X66896Y72252D02*
D03*
X67175Y137810D02*
D03*
X66540Y105857D02*
D03*
X239133Y76668D02*
D03*
D56*
X179172Y168123D02*
D03*
Y170663D02*
D03*
X240538Y168021D02*
D03*
Y170561D02*
D03*
X208991Y167970D02*
D03*
Y170510D02*
D03*
X148336Y167996D02*
D03*
Y170536D02*
D03*
X87706Y168021D02*
D03*
Y170561D02*
D03*
X118313Y168046D02*
D03*
Y170586D02*
D03*
D57*
X179172Y169393D02*
D03*
X240538Y169291D02*
D03*
X208991Y169240D02*
D03*
X148336Y169266D02*
D03*
X87706Y169291D02*
D03*
X118313Y169316D02*
D03*
D58*
X238252Y116185D02*
D03*
X238354Y140442D02*
D03*
D59*
X238252Y118720D02*
D03*
Y121260D02*
D03*
X238354Y145517D02*
D03*
Y142977D02*
D03*
D60*
X242743Y142660D02*
D03*
X242468Y118643D02*
D03*
D61*
X93076Y54508D02*
D03*
X85750Y70485D02*
D03*
X87503Y138176D02*
D03*
X132309Y62027D02*
D03*
X198730Y59817D02*
D03*
X200381Y58420D02*
D03*
X196901Y56896D02*
D03*
X93497Y57658D02*
D03*
X131572Y59665D02*
D03*
X137363Y56524D02*
D03*
X134442Y58090D02*
D03*
X85663Y143852D02*
D03*
X85358Y148452D02*
D03*
X84915Y116411D02*
D03*
X85240Y84127D02*
D03*
X85344Y79477D02*
D03*
X85598Y99517D02*
D03*
X85014Y111709D02*
D03*
X224993Y170561D02*
D03*
X194183Y170205D02*
D03*
X163530Y170505D02*
D03*
X133375Y170053D02*
D03*
X72009Y170561D02*
D03*
X103246Y170146D02*
D03*
X151054Y83998D02*
D03*
X188316Y91999D02*
D03*
X144323Y69113D02*
D03*
X130200Y77978D02*
D03*
X143440Y101721D02*
D03*
X129565Y111379D02*
D03*
X134442Y99746D02*
D03*
X129007Y146634D02*
D03*
X143408Y136906D02*
D03*
X223215Y156947D02*
D03*
X134468Y91084D02*
D03*
X103276Y84150D02*
D03*
X103175Y118034D02*
D03*
X103607Y153060D02*
D03*
X222631Y122809D02*
D03*
X222656Y127457D02*
D03*
X216179Y130226D02*
D03*
Y123114D02*
D03*
X188976Y141859D02*
D03*
X188443Y127559D02*
D03*
X182131Y143320D02*
D03*
X151181Y68377D02*
D03*
X159461Y69444D02*
D03*
X158521Y125603D02*
D03*
X162509Y128930D02*
D03*
X162433Y121869D02*
D03*
X179146Y127483D02*
D03*
X162331Y90653D02*
D03*
X159969Y101295D02*
D03*
X144247Y76581D02*
D03*
X141364Y85230D02*
D03*
X148768Y68986D02*
D03*
X182258Y76911D02*
D03*
X150368Y118288D02*
D03*
X143434Y111415D02*
D03*
X147955Y103556D02*
D03*
X130099Y64364D02*
D03*
X129553Y98539D02*
D03*
X128880Y132131D02*
D03*
X150470Y152095D02*
D03*
X158394Y134457D02*
D03*
X150328Y135103D02*
D03*
X150216Y101737D02*
D03*
X148107Y137084D02*
D03*
X182220Y111468D02*
D03*
X140589Y118999D02*
D03*
Y110820D02*
D03*
X140411Y152756D02*
D03*
X143637Y144551D02*
D03*
D77*
X128981Y141774D02*
D03*
Y143874D02*
D03*
X129565Y107052D02*
D03*
Y109152D02*
D03*
X130150Y73397D02*
D03*
Y75497D02*
D03*
X144323Y65142D02*
D03*
Y67242D02*
D03*
D78*
X139209Y136906D02*
D03*
X141309D02*
D03*
X139429Y101803D02*
D03*
X141529D02*
D03*
D81*
X75270Y140449D02*
D03*
D82*
X75502Y75933D02*
D03*
D83*
X75257Y107902D02*
D03*
D84*
X228575Y74879D02*
D03*
Y83579D02*
D03*
X150571Y106121D02*
D03*
Y114821D02*
D03*
X150673Y140100D02*
D03*
Y148800D02*
D03*
X228219Y115570D02*
D03*
Y106870D02*
D03*
X151206Y71425D02*
D03*
Y80125D02*
D03*
X228295Y122320D02*
D03*
Y131020D02*
D03*
X228346Y146666D02*
D03*
Y137966D02*
D03*
D85*
X223164Y151200D02*
D03*
Y153600D02*
D03*
D86*
X216738Y106872D02*
D03*
Y111872D02*
D03*
X217653Y151003D02*
D03*
Y146003D02*
D03*
X228549Y157262D02*
D03*
Y152262D02*
D03*
M02*
