M48
;Layer_Color=9474304
;FILE_FORMAT=4:3
METRIC,LZ
;TYPE=PLATED
T1F00S00C0.700
T2F00S00C0.711
T3F00S00C0.762
T4F00S00C0.900
T5F00S00C1.000
T6F00S00C1.067
T7F00S00C1.300
T8F00S00C1.350
T9F00S00C1.549
;TYPE=NON_PLATED
T10F00S00C0.762
%
T01
X0171425Y0063602
Y0066142
Y0068682
X0171379Y0074219
Y0076759
Y0079299
X0126238Y0073279
X0123698
X0121158
X0120599Y0107066
X0123139
X0125679
X0171526Y0109169
Y0111709
Y0114249
Y0102972
Y0100432
Y0097892
X0171425Y0089865
Y0087325
Y0084785
X0212776Y0089713
Y0092253
Y0094793
X0171526Y0119939
Y0122479
Y0125019
X0171648Y0130124
Y0132664
Y0135204
X0171755Y0140894
Y0143434
Y0145974
X0171679Y0151511
Y0154051
Y0156591
X0125578Y0141757
X0123038
X0120498
T02
X019873Y0059817
X0200381Y005842
X0196901Y0056896
X0182258Y0076911
X0159461Y0069444
X0151181Y0068377
X0148768Y0068986
X0144323Y0069113
X0144247Y0076581
X01302Y0077978
X0130099Y0064364
X0132309Y0062027
X0131572Y0059665
X0134442Y005809
X0137363Y0056524
X0093497Y0057658
X0093076Y0054508
X008575Y0070485
X0085344Y0079477
X008524Y0084127
X0085598Y0099517
X0085014Y0111709
X0084915Y0116411
X0103175Y0118034
X0103276Y008415
X0134468Y0091084
X0134442Y0099746
X0129553Y0098539
X0129565Y0111379
X0140589Y011082
X0143434Y0111415
X014344Y0101721
X0147955Y0103556
X0150216Y0101737
X0150368Y0118288
X0140589Y0118999
X0141364Y008523
X0151054Y0083998
X0162331Y0090653
X0159969Y0101295
X018222Y0111468
X0188316Y0091999
X0216179Y0123114
X0222631Y0122809
X0222656Y0127457
X0216179Y0130226
X0223215Y0156947
X0188976Y0141859
X0182131Y014332
X0179146Y0127483
X0188443Y0127559
X0162509Y012893
X0162433Y0121869
X0158521Y0125603
X0158394Y0134457
X0150328Y0135103
X0148107Y0137084
X0143408Y0136906
X0143637Y0144551
X0140411Y0152756
X015047Y0152095
X0129007Y0146634
X012888Y0132131
X0103607Y015306
X0085358Y0148452
X0085663Y0143852
X0087503Y0138176
X0072009Y0170561
X0103246Y0170146
X0133375Y0170053
X016353Y0170505
X0194183Y0170205
X0224993Y0170561
T03
X0153391Y0064124
Y0066624
X011713Y0074447
X011463
X0114111Y0108255
X0116611
X0153467Y0099198
Y0096698
Y0129794
Y0132294
X0116419Y0143002
X0113919
T04
X0087706Y0168021
Y0169291
Y0170561
X0118313Y0170586
Y0169316
Y0168046
X0148336Y0167996
Y0169266
Y0170536
X0179172Y0170663
Y0169393
Y0168123
X0208991Y016797
Y016924
Y017051
X0240538Y0170561
Y0169291
Y0168021
T05
X0182296Y0063932
Y0066472
Y0069012
X0182194Y0084785
Y0087325
Y0089865
X0182296Y0097917
Y0100457
Y0102997
X0202941Y0109576
Y0112116
Y0114656
Y0117196
X0242468Y0118643
X0242743Y014266
X0202844Y0143332
Y0145872
Y0148412
Y0140792
Y0138252
Y0135712
Y0133172
Y0130632
X0202941Y0127356
Y0124816
Y0122276
Y0119736
X0182118Y0119863
Y0122403
Y0124943
X0182143Y0129972
Y0132512
Y0135052
X0181961Y0151562
Y0154102
Y0156642
X0064922Y0166751
Y0169291
Y0171831
X0096317
Y0169291
Y0166751
X0126665Y0166675
Y0169215
Y0171755
X0156993Y0171933
Y0169393
Y0166853
X0187808Y0166751
Y0169291
Y0171831
X0218923Y0171856
Y0169316
Y0166776
T06
X0202108Y0065227
X0194589
X0093955Y0084176
X0093574Y0117983
X0122276
X0122657Y0084176
X012286Y0153035
X0094158
T07
X0239133Y0071668
Y0076668
X0066896Y0077252
Y0072252
X006654Y0105857
Y0110857
X0067175Y013781
Y014281
T08
X0238252Y0116185
Y011872
Y012126
X0238354Y0140442
Y0142977
Y0145517
T09
X0218872Y0060071
X0086131Y0065049
Y0086944
X0218872Y0081966
X0241808Y0083464
Y0105359
X0086817Y0129464
Y0151359
T10
X0164313Y0067793
X0161595Y0070841
X0163754Y0078486
X0178841Y0076886
X0186035Y0076601
X0156261Y0065151
X0141122Y0068656
X0141275Y0076378
X0124663Y0064465
X0109118Y0073203
X0097739Y007046
X009779Y0067361
X0081915Y0075159
X0066599Y0093193
X0081559Y0108255
X0097841Y0104242
X0097917Y0101194
X0109169Y0107645
X0123673Y0098476
X0140538Y009685
X0140589Y011082
X0137693Y0116967
X0145288Y0116865
X0156769Y0097384
X0155194Y008956
X0152476Y0086944
X0145517Y0083947
X0137973Y0082804
X0164186Y0100482
X0160147Y0105334
X0162966Y011336
X0178537Y0111531
X0185965
X0218211Y0095529
X0218186Y0092075
X0238862Y0110211
X0241732Y0130886
X0236245Y0149073
X0218999Y0154711
X0186106Y0143281
X0178435Y0143434
X0163627Y0144907
X0159791Y0138201
X0163144Y0132867
X0156312Y0129946
X0154407Y0123165
X0151943Y0120548
X0143485Y0129591
X0140564Y0144653
X0137262Y0153721
X0145202Y015339
X0152197Y0154635
X0156769Y0156185
X0123426Y0132296
X0109169Y0141122
X0097485Y0138303
Y0135204
X0082144Y0140081
M30
