G04*
G04 #@! TF.GenerationSoftware,Altium Limited,Altium Designer,21.6.4 (81)*
G04*
G04 Layer_Color=2752767*
%FSLAX43Y43*%
%MOMM*%
G71*
G04*
G04 #@! TF.SameCoordinates,1BFCAD30-3443-4AAB-B7F7-DC6525A64C66*
G04*
G04*
G04 #@! TF.FilePolarity,Positive*
G04*
G01*
G75*
%ADD90C,0.051*%
%ADD91C,0.068*%
%ADD92C,0.034*%
D90*
X81712Y74955D02*
Y75362D01*
X82118D01*
Y74955D01*
X81712D01*
X81356Y108052D02*
Y108458D01*
X81763D01*
Y108052D01*
X81356D01*
X81940Y139878D02*
Y140284D01*
X82347D01*
Y139878D01*
X81940D01*
X97282Y138100D02*
Y138506D01*
X97688D01*
Y138100D01*
X97282D01*
X97638Y104038D02*
Y104445D01*
X98044D01*
Y104038D01*
X97638D01*
X97536Y70256D02*
Y70663D01*
X97942D01*
Y70256D01*
X97536D01*
X194589Y65024D02*
X194386Y65430D01*
X194793D01*
X194589Y65024D01*
X202108D02*
X201905Y65430D01*
X202311D01*
X202108Y65024D01*
X97587Y67158D02*
Y67564D01*
X97993D01*
Y67158D01*
X97587D01*
X108966Y140919D02*
Y141326D01*
X109372D01*
Y140919D01*
X108966D01*
X122657Y83972D02*
X122453Y84379D01*
X122860D01*
X122657Y83972D01*
X93955D02*
X93751Y84379D01*
X94158D01*
X93955Y83972D01*
X66396Y92989D02*
Y93396D01*
X66802D01*
Y92989D01*
X66396D01*
X171755Y145771D02*
X171856Y145872D01*
X171958D01*
X171856Y145974D01*
X171958Y146075D01*
X171856D01*
X171755Y146177D01*
X171653Y146075D01*
X171552D01*
X171653Y145974D01*
X171552Y145872D01*
X171653D01*
X171755Y145771D01*
Y143231D02*
X171856Y143332D01*
X171958D01*
X171856Y143434D01*
X171958Y143535D01*
X171856D01*
X171755Y143637D01*
X171653Y143535D01*
X171552D01*
X171653Y143434D01*
X171552Y143332D01*
X171653D01*
X171755Y143231D01*
Y140691D02*
X171856Y140792D01*
X171958D01*
X171856Y140894D01*
X171958Y140995D01*
X171856D01*
X171755Y141097D01*
X171653Y140995D01*
X171552D01*
X171653Y140894D01*
X171552Y140792D01*
X171653D01*
X171755Y140691D01*
X171526Y114046D02*
X171628Y114148D01*
X171729D01*
X171628Y114249D01*
X171729Y114351D01*
X171628D01*
X171526Y114452D01*
X171425Y114351D01*
X171323D01*
X171425Y114249D01*
X171323Y114148D01*
X171425D01*
X171526Y114046D01*
Y111506D02*
X171628Y111608D01*
X171729D01*
X171628Y111709D01*
X171729Y111811D01*
X171628D01*
X171526Y111912D01*
X171425Y111811D01*
X171323D01*
X171425Y111709D01*
X171323Y111608D01*
X171425D01*
X171526Y111506D01*
Y108966D02*
X171628Y109068D01*
X171729D01*
X171628Y109169D01*
X171729Y109271D01*
X171628D01*
X171526Y109372D01*
X171425Y109271D01*
X171323D01*
X171425Y109169D01*
X171323Y109068D01*
X171425D01*
X171526Y108966D01*
X171379Y79096D02*
X171480Y79197D01*
X171582D01*
X171480Y79299D01*
X171582Y79400D01*
X171480D01*
X171379Y79502D01*
X171277Y79400D01*
X171176D01*
X171277Y79299D01*
X171176Y79197D01*
X171277D01*
X171379Y79096D01*
Y76556D02*
X171480Y76657D01*
X171582D01*
X171480Y76759D01*
X171582Y76860D01*
X171480D01*
X171379Y76962D01*
X171277Y76860D01*
X171176D01*
X171277Y76759D01*
X171176Y76657D01*
X171277D01*
X171379Y76556D01*
Y74016D02*
X171480Y74117D01*
X171582D01*
X171480Y74219D01*
X171582Y74320D01*
X171480D01*
X171379Y74422D01*
X171277Y74320D01*
X171176D01*
X171277Y74219D01*
X171176Y74117D01*
X171277D01*
X171379Y74016D01*
X137770Y82601D02*
Y83007D01*
X138176D01*
Y82601D01*
X137770D01*
X137490Y116764D02*
Y117170D01*
X137897D01*
Y116764D01*
X137490D01*
X137058Y153518D02*
Y153924D01*
X137465D01*
Y153518D01*
X137058D01*
X178638Y76683D02*
Y77089D01*
X179045D01*
Y76683D01*
X178638D01*
X161392Y70637D02*
Y71044D01*
X161798D01*
Y70637D01*
X161392D01*
X156058Y64948D02*
Y65354D01*
X156464D01*
Y64948D01*
X156058D01*
X140919Y68453D02*
Y68859D01*
X141326D01*
Y68453D01*
X140919D01*
X141072Y76175D02*
Y76581D01*
X141478D01*
Y76175D01*
X141072D01*
X163551Y78283D02*
Y78689D01*
X163957D01*
Y78283D01*
X163551D01*
X164109Y67589D02*
Y67996D01*
X164516D01*
Y67589D01*
X164109D01*
X108915Y73000D02*
Y73406D01*
X109322D01*
Y73000D01*
X108915D01*
X124460Y64262D02*
Y64668D01*
X124866D01*
Y64262D01*
X124460D01*
X152273Y86741D02*
Y87147D01*
X152679D01*
Y86741D01*
X152273D01*
X145313Y83744D02*
Y84150D01*
X145720D01*
Y83744D01*
X145313D01*
X154991Y89357D02*
Y89764D01*
X155397D01*
Y89357D01*
X154991D01*
X185832Y76398D02*
Y76804D01*
X186238D01*
Y76398D01*
X185832D01*
X218796Y154508D02*
Y154915D01*
X219202D01*
Y154508D01*
X218796D01*
X178333Y111328D02*
Y111735D01*
X178740D01*
Y111328D01*
X178333D01*
X159944Y105131D02*
Y105537D01*
X160350D01*
Y105131D01*
X159944D01*
X156566Y97180D02*
Y97587D01*
X156972D01*
Y97180D01*
X156566D01*
X140335Y96647D02*
Y97053D01*
X140741D01*
Y96647D01*
X140335D01*
X140386Y110617D02*
Y111023D01*
X140792D01*
Y110617D01*
X140386D01*
X162763Y113157D02*
Y113563D01*
X163170D01*
Y113157D01*
X162763D01*
X163982Y100279D02*
Y100686D01*
X164389D01*
Y100279D01*
X163982D01*
X108966Y107442D02*
Y107848D01*
X109372D01*
Y107442D01*
X108966D01*
X97714Y100990D02*
Y101397D01*
X98120D01*
Y100990D01*
X97714D01*
X123469Y98273D02*
Y98679D01*
X123876D01*
Y98273D01*
X123469D01*
X151740Y120345D02*
Y120752D01*
X152146D01*
Y120345D01*
X151740D01*
X145085Y116662D02*
Y117069D01*
X145491D01*
Y116662D01*
X145085D01*
X154203Y122961D02*
Y123368D01*
X154610D01*
Y122961D01*
X154203D01*
X185761Y111328D02*
Y111735D01*
X186168D01*
Y111328D01*
X185761D01*
X217983Y91872D02*
Y92278D01*
X218389D01*
Y91872D01*
X217983D01*
X218008Y95326D02*
Y95733D01*
X218415D01*
Y95326D01*
X218008D01*
X159588Y137998D02*
Y138405D01*
X159995D01*
Y137998D01*
X159588D01*
X156108Y129743D02*
Y130150D01*
X156515D01*
Y129743D01*
X156108D01*
X140360Y144450D02*
Y144856D01*
X140767D01*
Y144450D01*
X140360D01*
X163424Y144704D02*
Y145110D01*
X163830D01*
Y144704D01*
X163424D01*
X162941Y132664D02*
Y133071D01*
X163347D01*
Y132664D01*
X162941D01*
X123223Y132093D02*
Y132499D01*
X123629D01*
Y132093D01*
X123223D01*
X97282Y135001D02*
Y135407D01*
X97688D01*
Y135001D01*
X97282D01*
X151994Y154432D02*
Y154838D01*
X152400D01*
Y154432D01*
X151994D01*
X156566Y155981D02*
Y156388D01*
X156972D01*
Y155981D01*
X156566D01*
X144999Y153187D02*
Y153594D01*
X145406D01*
Y153187D01*
X144999D01*
X185903Y143078D02*
Y143485D01*
X186309D01*
Y143078D01*
X185903D01*
X178232Y143231D02*
Y143637D01*
X178638D01*
Y143231D01*
X178232D01*
X241529Y130683D02*
Y131089D01*
X241935D01*
Y130683D01*
X241529D01*
X238658Y110007D02*
Y110414D01*
X239065D01*
Y110007D01*
X238658D01*
X143281Y129388D02*
Y129794D01*
X143688D01*
Y129388D01*
X143281D01*
X236042Y148869D02*
Y149276D01*
X236449D01*
Y148869D01*
X236042D01*
X126238Y73076D02*
X126340Y73177D01*
X126441D01*
X126340Y73279D01*
X126441Y73381D01*
X126340D01*
X126238Y73482D01*
X126136Y73381D01*
X126035D01*
X126136Y73279D01*
X126035Y73177D01*
X126136D01*
X126238Y73076D01*
X123698D02*
X123800Y73177D01*
X123901D01*
X123800Y73279D01*
X123901Y73381D01*
X123800D01*
X123698Y73482D01*
X123596Y73381D01*
X123495D01*
X123596Y73279D01*
X123495Y73177D01*
X123596D01*
X123698Y73076D01*
X121158D02*
X121260Y73177D01*
X121361D01*
X121260Y73279D01*
X121361Y73381D01*
X121260D01*
X121158Y73482D01*
X121056Y73381D01*
X120955D01*
X121056Y73279D01*
X120955Y73177D01*
X121056D01*
X121158Y73076D01*
X171425Y68478D02*
X171526Y68580D01*
X171628D01*
X171526Y68682D01*
X171628Y68783D01*
X171526D01*
X171425Y68885D01*
X171323Y68783D01*
X171221D01*
X171323Y68682D01*
X171221Y68580D01*
X171323D01*
X171425Y68478D01*
Y65938D02*
X171526Y66040D01*
X171628D01*
X171526Y66142D01*
X171628Y66243D01*
X171526D01*
X171425Y66345D01*
X171323Y66243D01*
X171221D01*
X171323Y66142D01*
X171221Y66040D01*
X171323D01*
X171425Y65938D01*
Y63398D02*
X171526Y63500D01*
X171628D01*
X171526Y63602D01*
X171628Y63703D01*
X171526D01*
X171425Y63805D01*
X171323Y63703D01*
X171221D01*
X171323Y63602D01*
X171221Y63500D01*
X171323D01*
X171425Y63398D01*
X171425Y89662D02*
X171526Y89764D01*
X171628D01*
X171526Y89865D01*
X171628Y89967D01*
X171526D01*
X171425Y90068D01*
X171323Y89967D01*
X171221D01*
X171323Y89865D01*
X171221Y89764D01*
X171323D01*
X171425Y89662D01*
Y87122D02*
X171526Y87224D01*
X171628D01*
X171526Y87325D01*
X171628Y87427D01*
X171526D01*
X171425Y87528D01*
X171323Y87427D01*
X171221D01*
X171323Y87325D01*
X171221Y87224D01*
X171323D01*
X171425Y87122D01*
Y84582D02*
X171526Y84684D01*
X171628D01*
X171526Y84785D01*
X171628Y84887D01*
X171526D01*
X171425Y84988D01*
X171323Y84887D01*
X171221D01*
X171323Y84785D01*
X171221Y84684D01*
X171323D01*
X171425Y84582D01*
X125679Y106863D02*
X125781Y106964D01*
X125882D01*
X125781Y107066D01*
X125882Y107168D01*
X125781D01*
X125679Y107269D01*
X125578Y107168D01*
X125476D01*
X125578Y107066D01*
X125476Y106964D01*
X125578D01*
X125679Y106863D01*
X123139D02*
X123241Y106964D01*
X123342D01*
X123241Y107066D01*
X123342Y107168D01*
X123241D01*
X123139Y107269D01*
X123038Y107168D01*
X122936D01*
X123038Y107066D01*
X122936Y106964D01*
X123038D01*
X123139Y106863D01*
X120599D02*
X120701Y106964D01*
X120802D01*
X120701Y107066D01*
X120802Y107168D01*
X120701D01*
X120599Y107269D01*
X120498Y107168D01*
X120396D01*
X120498Y107066D01*
X120396Y106964D01*
X120498D01*
X120599Y106863D01*
X171526Y102768D02*
X171628Y102870D01*
X171729D01*
X171628Y102972D01*
X171729Y103073D01*
X171628D01*
X171526Y103175D01*
X171425Y103073D01*
X171323D01*
X171425Y102972D01*
X171323Y102870D01*
X171425D01*
X171526Y102768D01*
Y100228D02*
X171628Y100330D01*
X171729D01*
X171628Y100432D01*
X171729Y100533D01*
X171628D01*
X171526Y100635D01*
X171425Y100533D01*
X171323D01*
X171425Y100432D01*
X171323Y100330D01*
X171425D01*
X171526Y100228D01*
Y97688D02*
X171628Y97790D01*
X171729D01*
X171628Y97892D01*
X171729Y97993D01*
X171628D01*
X171526Y98095D01*
X171425Y97993D01*
X171323D01*
X171425Y97892D01*
X171323Y97790D01*
X171425D01*
X171526Y97688D01*
Y124816D02*
X171628Y124917D01*
X171729D01*
X171628Y125019D01*
X171729Y125120D01*
X171628D01*
X171526Y125222D01*
X171425Y125120D01*
X171323D01*
X171425Y125019D01*
X171323Y124917D01*
X171425D01*
X171526Y124816D01*
Y122276D02*
X171628Y122377D01*
X171729D01*
X171628Y122479D01*
X171729Y122580D01*
X171628D01*
X171526Y122682D01*
X171425Y122580D01*
X171323D01*
X171425Y122479D01*
X171323Y122377D01*
X171425D01*
X171526Y122276D01*
Y119736D02*
X171628Y119837D01*
X171729D01*
X171628Y119939D01*
X171729Y120040D01*
X171628D01*
X171526Y120142D01*
X171425Y120040D01*
X171323D01*
X171425Y119939D01*
X171323Y119837D01*
X171425D01*
X171526Y119736D01*
X212776Y89510D02*
X212877Y89611D01*
X212979D01*
X212877Y89713D01*
X212979Y89814D01*
X212877D01*
X212776Y89916D01*
X212674Y89814D01*
X212573D01*
X212674Y89713D01*
X212573Y89611D01*
X212674D01*
X212776Y89510D01*
Y92050D02*
X212877Y92151D01*
X212979D01*
X212877Y92253D01*
X212979Y92354D01*
X212877D01*
X212776Y92456D01*
X212674Y92354D01*
X212573D01*
X212674Y92253D01*
X212573Y92151D01*
X212674D01*
X212776Y92050D01*
Y94590D02*
X212877Y94691D01*
X212979D01*
X212877Y94793D01*
X212979Y94894D01*
X212877D01*
X212776Y94996D01*
X212674Y94894D01*
X212573D01*
X212674Y94793D01*
X212573Y94691D01*
X212674D01*
X212776Y94590D01*
X125578Y141554D02*
X125679Y141656D01*
X125781D01*
X125679Y141757D01*
X125781Y141859D01*
X125679D01*
X125578Y141961D01*
X125476Y141859D01*
X125374D01*
X125476Y141757D01*
X125374Y141656D01*
X125476D01*
X125578Y141554D01*
X123038D02*
X123139Y141656D01*
X123241D01*
X123139Y141757D01*
X123241Y141859D01*
X123139D01*
X123038Y141961D01*
X122936Y141859D01*
X122834D01*
X122936Y141757D01*
X122834Y141656D01*
X122936D01*
X123038Y141554D01*
X120498D02*
X120599Y141656D01*
X120701D01*
X120599Y141757D01*
X120701Y141859D01*
X120599D01*
X120498Y141961D01*
X120396Y141859D01*
X120294D01*
X120396Y141757D01*
X120294Y141656D01*
X120396D01*
X120498Y141554D01*
X171648Y135001D02*
X171750Y135103D01*
X171851D01*
X171750Y135204D01*
X171851Y135306D01*
X171750D01*
X171648Y135407D01*
X171547Y135306D01*
X171445D01*
X171547Y135204D01*
X171445Y135103D01*
X171547D01*
X171648Y135001D01*
Y132461D02*
X171750Y132563D01*
X171851D01*
X171750Y132664D01*
X171851Y132766D01*
X171750D01*
X171648Y132867D01*
X171547Y132766D01*
X171445D01*
X171547Y132664D01*
X171445Y132563D01*
X171547D01*
X171648Y132461D01*
Y129921D02*
X171750Y130023D01*
X171851D01*
X171750Y130124D01*
X171851Y130226D01*
X171750D01*
X171648Y130327D01*
X171547Y130226D01*
X171445D01*
X171547Y130124D01*
X171445Y130023D01*
X171547D01*
X171648Y129921D01*
X171679Y156388D02*
X171780Y156489D01*
X171882D01*
X171780Y156591D01*
X171882Y156693D01*
X171780D01*
X171679Y156794D01*
X171577Y156693D01*
X171475D01*
X171577Y156591D01*
X171475Y156489D01*
X171577D01*
X171679Y156388D01*
Y153848D02*
X171780Y153949D01*
X171882D01*
X171780Y154051D01*
X171882Y154153D01*
X171780D01*
X171679Y154254D01*
X171577Y154153D01*
X171475D01*
X171577Y154051D01*
X171475Y153949D01*
X171577D01*
X171679Y153848D01*
Y151308D02*
X171780Y151409D01*
X171882D01*
X171780Y151511D01*
X171882Y151613D01*
X171780D01*
X171679Y151714D01*
X171577Y151613D01*
X171475D01*
X171577Y151511D01*
X171475Y151409D01*
X171577D01*
X171679Y151308D01*
X156789Y171729D02*
X156891Y171933D01*
X156789Y172136D01*
X156993Y172034D01*
X157196Y172136D01*
X157094Y171933D01*
X157196Y171729D01*
X156993Y171831D01*
X156789Y171729D01*
Y169189D02*
X156891Y169393D01*
X156789Y169596D01*
X156993Y169494D01*
X157196Y169596D01*
X157094Y169393D01*
X157196Y169189D01*
X156993Y169291D01*
X156789Y169189D01*
Y166649D02*
X156891Y166853D01*
X156789Y167056D01*
X156993Y166954D01*
X157196Y167056D01*
X157094Y166853D01*
X157196Y166649D01*
X156993Y166751D01*
X156789Y166649D01*
X218719Y171653D02*
X218821Y171856D01*
X218719Y172060D01*
X218923Y171958D01*
X219126Y172060D01*
X219024Y171856D01*
X219126Y171653D01*
X218923Y171755D01*
X218719Y171653D01*
Y169113D02*
X218821Y169316D01*
X218719Y169520D01*
X218923Y169418D01*
X219126Y169520D01*
X219024Y169316D01*
X219126Y169113D01*
X218923Y169215D01*
X218719Y169113D01*
Y166573D02*
X218821Y166776D01*
X218719Y166980D01*
X218923Y166878D01*
X219126Y166980D01*
X219024Y166776D01*
X219126Y166573D01*
X218923Y166675D01*
X218719Y166573D01*
X187604Y171628D02*
X187706Y171831D01*
X187604Y172034D01*
X187808Y171933D01*
X188011Y172034D01*
X187909Y171831D01*
X188011Y171628D01*
X187808Y171729D01*
X187604Y171628D01*
Y169088D02*
X187706Y169291D01*
X187604Y169494D01*
X187808Y169393D01*
X188011Y169494D01*
X187909Y169291D01*
X188011Y169088D01*
X187808Y169189D01*
X187604Y169088D01*
Y166548D02*
X187706Y166751D01*
X187604Y166954D01*
X187808Y166853D01*
X188011Y166954D01*
X187909Y166751D01*
X188011Y166548D01*
X187808Y166649D01*
X187604Y166548D01*
X126462Y171552D02*
X126563Y171755D01*
X126462Y171958D01*
X126665Y171856D01*
X126868Y171958D01*
X126767Y171755D01*
X126868Y171552D01*
X126665Y171653D01*
X126462Y171552D01*
Y169012D02*
X126563Y169215D01*
X126462Y169418D01*
X126665Y169316D01*
X126868Y169418D01*
X126767Y169215D01*
X126868Y169012D01*
X126665Y169113D01*
X126462Y169012D01*
Y166472D02*
X126563Y166675D01*
X126462Y166878D01*
X126665Y166776D01*
X126868Y166878D01*
X126767Y166675D01*
X126868Y166472D01*
X126665Y166573D01*
X126462Y166472D01*
X64719Y171628D02*
X64821Y171831D01*
X64719Y172034D01*
X64922Y171933D01*
X65126Y172034D01*
X65024Y171831D01*
X65126Y171628D01*
X64922Y171729D01*
X64719Y171628D01*
Y169088D02*
X64821Y169291D01*
X64719Y169494D01*
X64922Y169393D01*
X65126Y169494D01*
X65024Y169291D01*
X65126Y169088D01*
X64922Y169189D01*
X64719Y169088D01*
Y166548D02*
X64821Y166751D01*
X64719Y166954D01*
X64922Y166853D01*
X65126Y166954D01*
X65024Y166751D01*
X65126Y166548D01*
X64922Y166649D01*
X64719Y166548D01*
X96114Y171628D02*
X96215Y171831D01*
X96114Y172034D01*
X96317Y171933D01*
X96520Y172034D01*
X96418Y171831D01*
X96520Y171628D01*
X96317Y171729D01*
X96114Y171628D01*
Y169088D02*
X96215Y169291D01*
X96114Y169494D01*
X96317Y169393D01*
X96520Y169494D01*
X96418Y169291D01*
X96520Y169088D01*
X96317Y169189D01*
X96114Y169088D01*
Y166548D02*
X96215Y166751D01*
X96114Y166954D01*
X96317Y166853D01*
X96520Y166954D01*
X96418Y166751D01*
X96520Y166548D01*
X96317Y166649D01*
X96114Y166548D01*
X202738Y109372D02*
X202840Y109576D01*
X202738Y109779D01*
X202941Y109677D01*
X203144Y109779D01*
X203043Y109576D01*
X203144Y109372D01*
X202941Y109474D01*
X202738Y109372D01*
Y111912D02*
X202840Y112116D01*
X202738Y112319D01*
X202941Y112217D01*
X203144Y112319D01*
X203043Y112116D01*
X203144Y111912D01*
X202941Y112014D01*
X202738Y111912D01*
Y116992D02*
X202840Y117196D01*
X202738Y117399D01*
X202941Y117297D01*
X203144Y117399D01*
X203043Y117196D01*
X203144Y116992D01*
X202941Y117094D01*
X202738Y116992D01*
Y122072D02*
X202840Y122276D01*
X202738Y122479D01*
X202941Y122377D01*
X203144Y122479D01*
X203043Y122276D01*
X203144Y122072D01*
X202941Y122174D01*
X202738Y122072D01*
Y127152D02*
X202840Y127356D01*
X202738Y127559D01*
X202941Y127457D01*
X203144Y127559D01*
X203043Y127356D01*
X203144Y127152D01*
X202941Y127254D01*
X202738Y127152D01*
Y124612D02*
X202840Y124816D01*
X202738Y125019D01*
X202941Y124917D01*
X203144Y125019D01*
X203043Y124816D01*
X203144Y124612D01*
X202941Y124714D01*
X202738Y124612D01*
Y119532D02*
X202840Y119736D01*
X202738Y119939D01*
X202941Y119837D01*
X203144Y119939D01*
X203043Y119736D01*
X203144Y119532D01*
X202941Y119634D01*
X202738Y119532D01*
Y114452D02*
X202840Y114656D01*
X202738Y114859D01*
X202941Y114757D01*
X203144Y114859D01*
X203043Y114656D01*
X203144Y114452D01*
X202941Y114554D01*
X202738Y114452D01*
X202641Y130429D02*
X202743Y130632D01*
X202641Y130835D01*
X202844Y130734D01*
X203048Y130835D01*
X202946Y130632D01*
X203048Y130429D01*
X202844Y130531D01*
X202641Y130429D01*
Y132969D02*
X202743Y133172D01*
X202641Y133375D01*
X202844Y133274D01*
X203048Y133375D01*
X202946Y133172D01*
X203048Y132969D01*
X202844Y133071D01*
X202641Y132969D01*
Y138049D02*
X202743Y138252D01*
X202641Y138455D01*
X202844Y138354D01*
X203048Y138455D01*
X202946Y138252D01*
X203048Y138049D01*
X202844Y138151D01*
X202641Y138049D01*
Y143129D02*
X202743Y143332D01*
X202641Y143535D01*
X202844Y143434D01*
X203048Y143535D01*
X202946Y143332D01*
X203048Y143129D01*
X202844Y143231D01*
X202641Y143129D01*
Y148209D02*
X202743Y148412D01*
X202641Y148615D01*
X202844Y148514D01*
X203048Y148615D01*
X202946Y148412D01*
X203048Y148209D01*
X202844Y148311D01*
X202641Y148209D01*
Y145669D02*
X202743Y145872D01*
X202641Y146075D01*
X202844Y145974D01*
X203048Y146075D01*
X202946Y145872D01*
X203048Y145669D01*
X202844Y145771D01*
X202641Y145669D01*
Y140589D02*
X202743Y140792D01*
X202641Y140995D01*
X202844Y140894D01*
X203048Y140995D01*
X202946Y140792D01*
X203048Y140589D01*
X202844Y140691D01*
X202641Y140589D01*
Y135509D02*
X202743Y135712D01*
X202641Y135915D01*
X202844Y135814D01*
X203048Y135915D01*
X202946Y135712D01*
X203048Y135509D01*
X202844Y135611D01*
X202641Y135509D01*
X182093Y68809D02*
X182194Y69012D01*
X182093Y69215D01*
X182296Y69113D01*
X182499Y69215D01*
X182397Y69012D01*
X182499Y68809D01*
X182296Y68910D01*
X182093Y68809D01*
Y66269D02*
X182194Y66472D01*
X182093Y66675D01*
X182296Y66573D01*
X182499Y66675D01*
X182397Y66472D01*
X182499Y66269D01*
X182296Y66370D01*
X182093Y66269D01*
Y63729D02*
X182194Y63932D01*
X182093Y64135D01*
X182296Y64033D01*
X182499Y64135D01*
X182397Y63932D01*
X182499Y63729D01*
X182296Y63830D01*
X182093Y63729D01*
X181991Y89662D02*
X182093Y89865D01*
X181991Y90068D01*
X182194Y89967D01*
X182397Y90068D01*
X182296Y89865D01*
X182397Y89662D01*
X182194Y89764D01*
X181991Y89662D01*
Y87122D02*
X182093Y87325D01*
X181991Y87528D01*
X182194Y87427D01*
X182397Y87528D01*
X182296Y87325D01*
X182397Y87122D01*
X182194Y87224D01*
X181991Y87122D01*
Y84582D02*
X182093Y84785D01*
X181991Y84988D01*
X182194Y84887D01*
X182397Y84988D01*
X182296Y84785D01*
X182397Y84582D01*
X182194Y84684D01*
X181991Y84582D01*
X182093Y102794D02*
X182194Y102997D01*
X182093Y103200D01*
X182296Y103099D01*
X182499Y103200D01*
X182397Y102997D01*
X182499Y102794D01*
X182296Y102895D01*
X182093Y102794D01*
Y100254D02*
X182194Y100457D01*
X182093Y100660D01*
X182296Y100559D01*
X182499Y100660D01*
X182397Y100457D01*
X182499Y100254D01*
X182296Y100355D01*
X182093Y100254D01*
Y97714D02*
X182194Y97917D01*
X182093Y98120D01*
X182296Y98019D01*
X182499Y98120D01*
X182397Y97917D01*
X182499Y97714D01*
X182296Y97815D01*
X182093Y97714D01*
X181915Y124739D02*
X182016Y124943D01*
X181915Y125146D01*
X182118Y125044D01*
X182321Y125146D01*
X182220Y124943D01*
X182321Y124739D01*
X182118Y124841D01*
X181915Y124739D01*
Y122199D02*
X182016Y122403D01*
X181915Y122606D01*
X182118Y122504D01*
X182321Y122606D01*
X182220Y122403D01*
X182321Y122199D01*
X182118Y122301D01*
X181915Y122199D01*
Y119659D02*
X182016Y119863D01*
X181915Y120066D01*
X182118Y119964D01*
X182321Y120066D01*
X182220Y119863D01*
X182321Y119659D01*
X182118Y119761D01*
X181915Y119659D01*
X181940Y134849D02*
X182042Y135052D01*
X181940Y135255D01*
X182143Y135153D01*
X182347Y135255D01*
X182245Y135052D01*
X182347Y134849D01*
X182143Y134950D01*
X181940Y134849D01*
Y132309D02*
X182042Y132512D01*
X181940Y132715D01*
X182143Y132613D01*
X182347Y132715D01*
X182245Y132512D01*
X182347Y132309D01*
X182143Y132410D01*
X181940Y132309D01*
Y129769D02*
X182042Y129972D01*
X181940Y130175D01*
X182143Y130073D01*
X182347Y130175D01*
X182245Y129972D01*
X182347Y129769D01*
X182143Y129870D01*
X181940Y129769D01*
X181758Y156439D02*
X181859Y156642D01*
X181758Y156845D01*
X181961Y156743D01*
X182164Y156845D01*
X182062Y156642D01*
X182164Y156439D01*
X181961Y156540D01*
X181758Y156439D01*
Y153899D02*
X181859Y154102D01*
X181758Y154305D01*
X181961Y154203D01*
X182164Y154305D01*
X182062Y154102D01*
X182164Y153899D01*
X181961Y154000D01*
X181758Y153899D01*
Y151359D02*
X181859Y151562D01*
X181758Y151765D01*
X181961Y151663D01*
X182164Y151765D01*
X182062Y151562D01*
X182164Y151359D01*
X181961Y151460D01*
X181758Y151359D01*
X117029Y74346D02*
Y74244D01*
X117232D01*
Y74346D01*
X117333D01*
Y74549D01*
X117232D01*
Y74651D01*
X117029D01*
Y74549D01*
X116927D01*
Y74346D01*
X117029D01*
X114529D02*
Y74244D01*
X114732D01*
Y74346D01*
X114833D01*
Y74549D01*
X114732D01*
Y74651D01*
X114529D01*
Y74549D01*
X114427D01*
Y74346D01*
X114529D01*
X116510Y108153D02*
Y108052D01*
X116713D01*
Y108153D01*
X116815D01*
Y108356D01*
X116713D01*
Y108458D01*
X116510D01*
Y108356D01*
X116408D01*
Y108153D01*
X116510D01*
X114010D02*
Y108052D01*
X114213D01*
Y108153D01*
X114315D01*
Y108356D01*
X114213D01*
Y108458D01*
X114010D01*
Y108356D01*
X113908D01*
Y108153D01*
X114010D01*
X116317Y142900D02*
Y142799D01*
X116521D01*
Y142900D01*
X116622D01*
Y143104D01*
X116521D01*
Y143205D01*
X116317D01*
Y143104D01*
X116216D01*
Y142900D01*
X116317D01*
X113817D02*
Y142799D01*
X114021D01*
Y142900D01*
X114122D01*
Y143104D01*
X114021D01*
Y143205D01*
X113817D01*
Y143104D01*
X113716D01*
Y142900D01*
X113817D01*
X153289Y64023D02*
Y63921D01*
X153492D01*
Y64023D01*
X153594D01*
Y64226D01*
X153492D01*
Y64327D01*
X153289D01*
Y64226D01*
X153187D01*
Y64023D01*
X153289D01*
Y66523D02*
Y66421D01*
X153492D01*
Y66523D01*
X153594D01*
Y66726D01*
X153492D01*
Y66827D01*
X153289D01*
Y66726D01*
X153187D01*
Y66523D01*
X153289D01*
X153365Y129692D02*
Y129591D01*
X153568D01*
Y129692D01*
X153670D01*
Y129896D01*
X153568D01*
Y129997D01*
X153365D01*
Y129896D01*
X153264D01*
Y129692D01*
X153365D01*
Y132192D02*
Y132091D01*
X153568D01*
Y132192D01*
X153670D01*
Y132396D01*
X153568D01*
Y132497D01*
X153365D01*
Y132396D01*
X153264D01*
Y132192D01*
X153365D01*
X66692Y77049D02*
X66794D01*
X66896Y77151D01*
X66997Y77049D01*
X67099D01*
Y77151D01*
X66997Y77252D01*
X67099Y77354D01*
Y77456D01*
X66997D01*
X66896Y77354D01*
X66794Y77456D01*
X66692D01*
Y77354D01*
X66794Y77252D01*
X66692Y77151D01*
Y77049D01*
Y72049D02*
X66794D01*
X66896Y72151D01*
X66997Y72049D01*
X67099D01*
Y72151D01*
X66997Y72252D01*
X67099Y72354D01*
Y72456D01*
X66997D01*
X66896Y72354D01*
X66794Y72456D01*
X66692D01*
Y72354D01*
X66794Y72252D01*
X66692Y72151D01*
Y72049D01*
X66972Y142607D02*
X67073D01*
X67175Y142708D01*
X67277Y142607D01*
X67378D01*
Y142708D01*
X67277Y142810D01*
X67378Y142911D01*
Y143013D01*
X67277D01*
X67175Y142911D01*
X67073Y143013D01*
X66972D01*
Y142911D01*
X67073Y142810D01*
X66972Y142708D01*
Y142607D01*
Y137607D02*
X67073D01*
X67175Y137708D01*
X67277Y137607D01*
X67378D01*
Y137708D01*
X67277Y137810D01*
X67378Y137911D01*
Y138013D01*
X67277D01*
X67175Y137911D01*
X67073Y138013D01*
X66972D01*
Y137911D01*
X67073Y137810D01*
X66972Y137708D01*
Y137607D01*
X153365Y96596D02*
Y96495D01*
X153568D01*
Y96596D01*
X153670D01*
Y96799D01*
X153568D01*
Y96901D01*
X153365D01*
Y96799D01*
X153264D01*
Y96596D01*
X153365D01*
Y99096D02*
Y98995D01*
X153568D01*
Y99096D01*
X153670D01*
Y99299D01*
X153568D01*
Y99401D01*
X153365D01*
Y99299D01*
X153264D01*
Y99096D01*
X153365D01*
X66337Y110653D02*
X66438D01*
X66540Y110755D01*
X66642Y110653D01*
X66743D01*
Y110755D01*
X66642Y110857D01*
X66743Y110958D01*
Y111060D01*
X66642D01*
X66540Y110958D01*
X66438Y111060D01*
X66337D01*
Y110958D01*
X66438Y110857D01*
X66337Y110755D01*
Y110653D01*
Y105653D02*
X66438D01*
X66540Y105755D01*
X66642Y105653D01*
X66743D01*
Y105755D01*
X66642Y105857D01*
X66743Y105958D01*
Y106060D01*
X66642D01*
X66540Y105958D01*
X66438Y106060D01*
X66337D01*
Y105958D01*
X66438Y105857D01*
X66337Y105755D01*
Y105653D01*
X238930Y71465D02*
X239031D01*
X239133Y71566D01*
X239235Y71465D01*
X239336D01*
Y71566D01*
X239235Y71668D01*
X239336Y71769D01*
Y71871D01*
X239235D01*
X239133Y71769D01*
X239031Y71871D01*
X238930D01*
Y71769D01*
X239031Y71668D01*
X238930Y71566D01*
Y71465D01*
Y76465D02*
X239031D01*
X239133Y76566D01*
X239235Y76465D01*
X239336D01*
Y76566D01*
X239235Y76668D01*
X239336Y76769D01*
Y76871D01*
X239235D01*
X239133Y76769D01*
X239031Y76871D01*
X238930D01*
Y76769D01*
X239031Y76668D01*
X238930Y76566D01*
Y76465D01*
X178968Y168123D02*
X179172Y168326D01*
X179375Y168123D01*
X179172Y167919D01*
X178968Y168123D01*
Y169393D02*
X179172Y169596D01*
X179375Y169393D01*
X179172Y169189D01*
X178968Y169393D01*
Y170663D02*
X179172Y170866D01*
X179375Y170663D01*
X179172Y170459D01*
X178968Y170663D01*
X240335Y168021D02*
X240538Y168224D01*
X240741Y168021D01*
X240538Y167818D01*
X240335Y168021D01*
Y169291D02*
X240538Y169494D01*
X240741Y169291D01*
X240538Y169088D01*
X240335Y169291D01*
Y170561D02*
X240538Y170764D01*
X240741Y170561D01*
X240538Y170358D01*
X240335Y170561D01*
X208788Y167970D02*
X208991Y168173D01*
X209194Y167970D01*
X208991Y167767D01*
X208788Y167970D01*
Y169240D02*
X208991Y169443D01*
X209194Y169240D01*
X208991Y169037D01*
X208788Y169240D01*
Y170510D02*
X208991Y170713D01*
X209194Y170510D01*
X208991Y170307D01*
X208788Y170510D01*
X148133Y167996D02*
X148336Y168199D01*
X148539Y167996D01*
X148336Y167792D01*
X148133Y167996D01*
Y169266D02*
X148336Y169469D01*
X148539Y169266D01*
X148336Y169062D01*
X148133Y169266D01*
Y170536D02*
X148336Y170739D01*
X148539Y170536D01*
X148336Y170332D01*
X148133Y170536D01*
X87503Y168021D02*
X87706Y168224D01*
X87909Y168021D01*
X87706Y167818D01*
X87503Y168021D01*
Y169291D02*
X87706Y169494D01*
X87909Y169291D01*
X87706Y169088D01*
X87503Y169291D01*
Y170561D02*
X87706Y170764D01*
X87909Y170561D01*
X87706Y170358D01*
X87503Y170561D01*
X118110Y168046D02*
X118313Y168250D01*
X118516Y168046D01*
X118313Y167843D01*
X118110Y168046D01*
Y169316D02*
X118313Y169520D01*
X118516Y169316D01*
X118313Y169113D01*
X118110Y169316D01*
Y170586D02*
X118313Y170790D01*
X118516Y170586D01*
X118313Y170383D01*
X118110Y170586D01*
X238049Y115981D02*
Y116388D01*
X238455D01*
Y115981D01*
X238049D01*
X238150Y116083D02*
Y116286D01*
X238354D01*
Y116083D01*
X238150D01*
X238049Y118516D02*
Y118923D01*
X238455D01*
Y118516D01*
X238049D01*
X238150Y118618D02*
Y118821D01*
X238354D01*
Y118618D01*
X238150D01*
X238049Y121056D02*
Y121463D01*
X238455D01*
Y121056D01*
X238049D01*
X238150Y121158D02*
Y121361D01*
X238354D01*
Y121158D01*
X238150D01*
Y145313D02*
Y145720D01*
X238557D01*
Y145313D01*
X238150D01*
X238252Y145415D02*
Y145618D01*
X238455D01*
Y145415D01*
X238252D01*
X238150Y142773D02*
Y143180D01*
X238557D01*
Y142773D01*
X238150D01*
X238252Y142875D02*
Y143078D01*
X238455D01*
Y142875D01*
X238252D01*
X238150Y140238D02*
Y140645D01*
X238557D01*
Y140238D01*
X238150D01*
X238252Y140340D02*
Y140543D01*
X238455D01*
Y140340D01*
X238252D01*
X242540Y142457D02*
X242641Y142660D01*
X242540Y142864D01*
X242743Y142762D01*
X242946Y142864D01*
X242845Y142660D01*
X242946Y142457D01*
X242743Y142559D01*
X242540Y142457D01*
X242265Y118440D02*
X242367Y118643D01*
X242265Y118847D01*
X242468Y118745D01*
X242672Y118847D01*
X242570Y118643D01*
X242672Y118440D01*
X242468Y118542D01*
X242265Y118440D01*
X94158Y152832D02*
X93955Y153238D01*
X94361D01*
X94158Y152832D01*
X122860D02*
X122657Y153238D01*
X123063D01*
X122860Y152832D01*
X122276Y117780D02*
X122072Y118186D01*
X122479D01*
X122276Y117780D01*
X93574D02*
X93370Y118186D01*
X93777D01*
X93574Y117780D01*
D91*
X87020Y151359D02*
G03*
X87020Y151359I-203J0D01*
G01*
Y129464D02*
G03*
X87020Y129464I-203J0D01*
G01*
X86335Y86944D02*
G03*
X86335Y86944I-203J0D01*
G01*
Y65049D02*
G03*
X86335Y65049I-203J0D01*
G01*
X219075Y81966D02*
G03*
X219075Y81966I-203J0D01*
G01*
Y60071D02*
G03*
X219075Y60071I-203J0D01*
G01*
X242011Y83464D02*
G03*
X242011Y83464I-203J0D01*
G01*
Y105359D02*
G03*
X242011Y105359I-203J0D01*
G01*
X93280Y54508D02*
G03*
X93280Y54508I-203J0D01*
G01*
X85954Y70485D02*
G03*
X85954Y70485I-203J0D01*
G01*
X87706Y138176D02*
G03*
X87706Y138176I-203J0D01*
G01*
X132512Y62027D02*
G03*
X132512Y62027I-203J0D01*
G01*
X198933Y59817D02*
G03*
X198933Y59817I-203J0D01*
G01*
X200584Y58420D02*
G03*
X200584Y58420I-203J0D01*
G01*
X197104Y56896D02*
G03*
X197104Y56896I-203J0D01*
G01*
X93701Y57658D02*
G03*
X93701Y57658I-203J0D01*
G01*
X131775Y59665D02*
G03*
X131775Y59665I-203J0D01*
G01*
X137566Y56524D02*
G03*
X137566Y56524I-203J0D01*
G01*
X134645Y58090D02*
G03*
X134645Y58090I-203J0D01*
G01*
X85866Y143852D02*
G03*
X85866Y143852I-203J0D01*
G01*
X85561Y148452D02*
G03*
X85561Y148452I-203J0D01*
G01*
X85118Y116411D02*
G03*
X85118Y116411I-203J0D01*
G01*
X85443Y84127D02*
G03*
X85443Y84127I-203J0D01*
G01*
X85547Y79477D02*
G03*
X85547Y79477I-203J0D01*
G01*
X85801Y99517D02*
G03*
X85801Y99517I-203J0D01*
G01*
X85217Y111709D02*
G03*
X85217Y111709I-203J0D01*
G01*
X225196Y170561D02*
G03*
X225196Y170561I-203J0D01*
G01*
X194386Y170205D02*
G03*
X194386Y170205I-203J0D01*
G01*
X163734Y170505D02*
G03*
X163734Y170505I-203J0D01*
G01*
X133579Y170053D02*
G03*
X133579Y170053I-203J0D01*
G01*
X72212Y170561D02*
G03*
X72212Y170561I-203J0D01*
G01*
X103449Y170146D02*
G03*
X103449Y170146I-203J0D01*
G01*
X151257Y83998D02*
G03*
X151257Y83998I-203J0D01*
G01*
X188519Y91999D02*
G03*
X188519Y91999I-203J0D01*
G01*
X144526Y69113D02*
G03*
X144526Y69113I-203J0D01*
G01*
X130404Y77978D02*
G03*
X130404Y77978I-203J0D01*
G01*
X143643Y101721D02*
G03*
X143643Y101721I-203J0D01*
G01*
X129769Y111379D02*
G03*
X129769Y111379I-203J0D01*
G01*
X134645Y99746D02*
G03*
X134645Y99746I-203J0D01*
G01*
X129210Y146634D02*
G03*
X129210Y146634I-203J0D01*
G01*
X143612Y136906D02*
G03*
X143612Y136906I-203J0D01*
G01*
X223418Y156947D02*
G03*
X223418Y156947I-203J0D01*
G01*
X134671Y91084D02*
G03*
X134671Y91084I-203J0D01*
G01*
X103480Y84150D02*
G03*
X103480Y84150I-203J0D01*
G01*
X103378Y118034D02*
G03*
X103378Y118034I-203J0D01*
G01*
X103810Y153060D02*
G03*
X103810Y153060I-203J0D01*
G01*
X222834Y122809D02*
G03*
X222834Y122809I-203J0D01*
G01*
X222860Y127457D02*
G03*
X222860Y127457I-203J0D01*
G01*
X216383Y130226D02*
G03*
X216383Y130226I-203J0D01*
G01*
Y123114D02*
G03*
X216383Y123114I-203J0D01*
G01*
X189179Y141859D02*
G03*
X189179Y141859I-203J0D01*
G01*
X188646Y127559D02*
G03*
X188646Y127559I-203J0D01*
G01*
X182334Y143320D02*
G03*
X182334Y143320I-203J0D01*
G01*
X151384Y68377D02*
G03*
X151384Y68377I-203J0D01*
G01*
X159664Y69444D02*
G03*
X159664Y69444I-203J0D01*
G01*
X158725Y125603D02*
G03*
X158725Y125603I-203J0D01*
G01*
X162712Y128930D02*
G03*
X162712Y128930I-203J0D01*
G01*
X162636Y121869D02*
G03*
X162636Y121869I-203J0D01*
G01*
X179349Y127483D02*
G03*
X179349Y127483I-203J0D01*
G01*
X162535Y90653D02*
G03*
X162535Y90653I-203J0D01*
G01*
X160172Y101295D02*
G03*
X160172Y101295I-203J0D01*
G01*
X144450Y76581D02*
G03*
X144450Y76581I-203J0D01*
G01*
X141567Y85230D02*
G03*
X141567Y85230I-203J0D01*
G01*
X148971Y68986D02*
G03*
X148971Y68986I-203J0D01*
G01*
X182461Y76911D02*
G03*
X182461Y76911I-203J0D01*
G01*
X150571Y118288D02*
G03*
X150571Y118288I-203J0D01*
G01*
X143637Y111415D02*
G03*
X143637Y111415I-203J0D01*
G01*
X148158Y103556D02*
G03*
X148158Y103556I-203J0D01*
G01*
X130302Y64364D02*
G03*
X130302Y64364I-203J0D01*
G01*
X129756Y98539D02*
G03*
X129756Y98539I-203J0D01*
G01*
X129083Y132131D02*
G03*
X129083Y132131I-203J0D01*
G01*
X150673Y152095D02*
G03*
X150673Y152095I-203J0D01*
G01*
X158598Y134457D02*
G03*
X158598Y134457I-203J0D01*
G01*
X150531Y135103D02*
G03*
X150531Y135103I-203J0D01*
G01*
X150419Y101737D02*
G03*
X150419Y101737I-203J0D01*
G01*
X148311Y137084D02*
G03*
X148311Y137084I-203J0D01*
G01*
X182423Y111468D02*
G03*
X182423Y111468I-203J0D01*
G01*
X140792Y118999D02*
G03*
X140792Y118999I-203J0D01*
G01*
Y110820D02*
G03*
X140792Y110820I-203J0D01*
G01*
X140614Y152756D02*
G03*
X140614Y152756I-203J0D01*
G01*
X143840Y144551D02*
G03*
X143840Y144551I-203J0D01*
G01*
D92*
X93178Y54508D02*
G03*
X93178Y54508I-102J0D01*
G01*
X85852Y70485D02*
G03*
X85852Y70485I-102J0D01*
G01*
X87605Y138176D02*
G03*
X87605Y138176I-102J0D01*
G01*
X132410Y62027D02*
G03*
X132410Y62027I-102J0D01*
G01*
X198831Y59817D02*
G03*
X198831Y59817I-102J0D01*
G01*
X200482Y58420D02*
G03*
X200482Y58420I-102J0D01*
G01*
X197002Y56896D02*
G03*
X197002Y56896I-102J0D01*
G01*
X93599Y57658D02*
G03*
X93599Y57658I-102J0D01*
G01*
X131674Y59665D02*
G03*
X131674Y59665I-102J0D01*
G01*
X137465Y56524D02*
G03*
X137465Y56524I-102J0D01*
G01*
X134544Y58090D02*
G03*
X134544Y58090I-102J0D01*
G01*
X85764Y143852D02*
G03*
X85764Y143852I-102J0D01*
G01*
X85460Y148452D02*
G03*
X85460Y148452I-102J0D01*
G01*
X85016Y116411D02*
G03*
X85016Y116411I-102J0D01*
G01*
X85341Y84127D02*
G03*
X85341Y84127I-102J0D01*
G01*
X85446Y79477D02*
G03*
X85446Y79477I-102J0D01*
G01*
X85700Y99517D02*
G03*
X85700Y99517I-102J0D01*
G01*
X85115Y111709D02*
G03*
X85115Y111709I-102J0D01*
G01*
X225095Y170561D02*
G03*
X225095Y170561I-102J0D01*
G01*
X194285Y170205D02*
G03*
X194285Y170205I-102J0D01*
G01*
X163632Y170505D02*
G03*
X163632Y170505I-102J0D01*
G01*
X133477Y170053D02*
G03*
X133477Y170053I-102J0D01*
G01*
X72111Y170561D02*
G03*
X72111Y170561I-102J0D01*
G01*
X103347Y170146D02*
G03*
X103347Y170146I-102J0D01*
G01*
X151155Y83998D02*
G03*
X151155Y83998I-102J0D01*
G01*
X188417Y91999D02*
G03*
X188417Y91999I-102J0D01*
G01*
X144424Y69113D02*
G03*
X144424Y69113I-102J0D01*
G01*
X130302Y77978D02*
G03*
X130302Y77978I-102J0D01*
G01*
X143542Y101721D02*
G03*
X143542Y101721I-102J0D01*
G01*
X129667Y111379D02*
G03*
X129667Y111379I-102J0D01*
G01*
X134544Y99746D02*
G03*
X134544Y99746I-102J0D01*
G01*
X129108Y146634D02*
G03*
X129108Y146634I-102J0D01*
G01*
X143510Y136906D02*
G03*
X143510Y136906I-102J0D01*
G01*
X223317Y156947D02*
G03*
X223317Y156947I-102J0D01*
G01*
X134569Y91084D02*
G03*
X134569Y91084I-102J0D01*
G01*
X103378Y84150D02*
G03*
X103378Y84150I-102J0D01*
G01*
X103276Y118034D02*
G03*
X103276Y118034I-102J0D01*
G01*
X103708Y153060D02*
G03*
X103708Y153060I-102J0D01*
G01*
X222733Y122809D02*
G03*
X222733Y122809I-102J0D01*
G01*
X222758Y127457D02*
G03*
X222758Y127457I-102J0D01*
G01*
X216281Y130226D02*
G03*
X216281Y130226I-102J0D01*
G01*
Y123114D02*
G03*
X216281Y123114I-102J0D01*
G01*
X189078Y141859D02*
G03*
X189078Y141859I-102J0D01*
G01*
X188544Y127559D02*
G03*
X188544Y127559I-102J0D01*
G01*
X182232Y143320D02*
G03*
X182232Y143320I-102J0D01*
G01*
X151282Y68377D02*
G03*
X151282Y68377I-102J0D01*
G01*
X159563Y69444D02*
G03*
X159563Y69444I-102J0D01*
G01*
X158623Y125603D02*
G03*
X158623Y125603I-102J0D01*
G01*
X162611Y128930D02*
G03*
X162611Y128930I-102J0D01*
G01*
X162535Y121869D02*
G03*
X162535Y121869I-102J0D01*
G01*
X179248Y127483D02*
G03*
X179248Y127483I-102J0D01*
G01*
X162433Y90653D02*
G03*
X162433Y90653I-102J0D01*
G01*
X160071Y101295D02*
G03*
X160071Y101295I-102J0D01*
G01*
X144348Y76581D02*
G03*
X144348Y76581I-102J0D01*
G01*
X141465Y85230D02*
G03*
X141465Y85230I-102J0D01*
G01*
X148869Y68986D02*
G03*
X148869Y68986I-102J0D01*
G01*
X182359Y76911D02*
G03*
X182359Y76911I-102J0D01*
G01*
X150470Y118288D02*
G03*
X150470Y118288I-102J0D01*
G01*
X143535Y111415D02*
G03*
X143535Y111415I-102J0D01*
G01*
X148057Y103556D02*
G03*
X148057Y103556I-102J0D01*
G01*
X130200Y64364D02*
G03*
X130200Y64364I-102J0D01*
G01*
X129654Y98539D02*
G03*
X129654Y98539I-102J0D01*
G01*
X128981Y132131D02*
G03*
X128981Y132131I-102J0D01*
G01*
X150571Y152095D02*
G03*
X150571Y152095I-102J0D01*
G01*
X158496Y134457D02*
G03*
X158496Y134457I-102J0D01*
G01*
X150429Y135103D02*
G03*
X150429Y135103I-102J0D01*
G01*
X150317Y101737D02*
G03*
X150317Y101737I-102J0D01*
G01*
X148209Y137084D02*
G03*
X148209Y137084I-102J0D01*
G01*
X182321Y111468D02*
G03*
X182321Y111468I-102J0D01*
G01*
X140691Y118999D02*
G03*
X140691Y118999I-102J0D01*
G01*
Y110820D02*
G03*
X140691Y110820I-102J0D01*
G01*
X140513Y152756D02*
G03*
X140513Y152756I-102J0D01*
G01*
X143739Y144551D02*
G03*
X143739Y144551I-102J0D01*
G01*
M02*
