G04*
G04 #@! TF.GenerationSoftware,Altium Limited,Altium Designer,21.6.4 (81)*
G04*
G04 Layer_Color=128*
%FSLAX43Y43*%
%MOMM*%
G71*
G04*
G04 #@! TF.SameCoordinates,1BFCAD30-3443-4AAB-B7F7-DC6525A64C66*
G04*
G04*
G04 #@! TF.FilePolarity,Positive*
G04*
G01*
G75*
%ADD21R,1.207X1.508*%
%ADD24R,1.508X1.207*%
%ADD26R,1.556X1.505*%
G04:AMPARAMS|DCode=30|XSize=1.607mm|YSize=0.762mm|CornerRadius=0.381mm|HoleSize=0mm|Usage=FLASHONLY|Rotation=0.000|XOffset=0mm|YOffset=0mm|HoleType=Round|Shape=RoundedRectangle|*
%AMROUNDEDRECTD30*
21,1,1.607,0.000,0,0,0.0*
21,1,0.845,0.762,0,0,0.0*
1,1,0.762,0.422,0.000*
1,1,0.762,-0.422,0.000*
1,1,0.762,-0.422,0.000*
1,1,0.762,0.422,0.000*
%
%ADD30ROUNDEDRECTD30*%
%ADD31R,1.607X0.762*%
%ADD32R,1.505X1.556*%
%ADD76R,2.000X4.100*%
%ADD77R,1.200X1.100*%
%ADD78R,1.100X1.200*%
%ADD79R,0.500X1.000*%
%ADD80R,7.500X3.000*%
D21*
X206391Y120726D02*
D03*
X208493D02*
D03*
X206416Y124841D02*
D03*
X208518D02*
D03*
X206366Y128499D02*
D03*
X208467D02*
D03*
X175378Y132537D02*
D03*
X177479D02*
D03*
D24*
X166802Y134458D02*
D03*
Y136560D02*
D03*
X166776Y139538D02*
D03*
Y141640D02*
D03*
X178359Y140141D02*
D03*
Y138040D02*
D03*
X166980Y102251D02*
D03*
Y104353D02*
D03*
X166802Y107829D02*
D03*
Y109931D02*
D03*
X178537Y108290D02*
D03*
Y106188D02*
D03*
X167030Y67834D02*
D03*
Y69936D02*
D03*
Y72863D02*
D03*
Y74965D02*
D03*
X178867Y74127D02*
D03*
Y72025D02*
D03*
X210058Y152054D02*
D03*
Y149952D02*
D03*
X210109Y147964D02*
D03*
Y145863D02*
D03*
X210160Y144205D02*
D03*
Y142104D02*
D03*
X166726Y150130D02*
D03*
Y152232D02*
D03*
X166751Y155810D02*
D03*
Y157912D02*
D03*
Y145202D02*
D03*
Y147304D02*
D03*
X166802Y128911D02*
D03*
Y131013D02*
D03*
X182093Y146345D02*
D03*
Y148447D02*
D03*
X182169Y140294D02*
D03*
Y138192D02*
D03*
X178359Y148488D02*
D03*
Y146387D02*
D03*
X150597Y129912D02*
D03*
Y132013D02*
D03*
X166802Y118447D02*
D03*
Y120548D02*
D03*
Y123765D02*
D03*
Y125866D02*
D03*
X166827Y113417D02*
D03*
Y115519D02*
D03*
X166954Y96561D02*
D03*
Y98663D02*
D03*
X182194Y114637D02*
D03*
Y116738D02*
D03*
X182245Y108299D02*
D03*
Y106197D02*
D03*
X178613Y116738D02*
D03*
Y114637D02*
D03*
X150774Y96901D02*
D03*
Y99003D02*
D03*
X167132Y83464D02*
D03*
Y85566D02*
D03*
X167183Y89154D02*
D03*
Y91256D02*
D03*
X167132Y78527D02*
D03*
Y80629D02*
D03*
X167030Y62348D02*
D03*
Y64449D02*
D03*
X182245Y79645D02*
D03*
Y81747D02*
D03*
X182270Y74177D02*
D03*
Y72076D02*
D03*
X178816Y81721D02*
D03*
Y79620D02*
D03*
X151257Y64761D02*
D03*
Y66862D02*
D03*
D26*
X210795Y130288D02*
D03*
Y128487D02*
D03*
Y126555D02*
D03*
Y124753D02*
D03*
X210896Y122491D02*
D03*
Y120689D02*
D03*
X159131Y76593D02*
D03*
Y74791D02*
D03*
X164008Y71134D02*
D03*
Y72935D02*
D03*
X148539Y86106D02*
D03*
Y87908D02*
D03*
X158369Y111250D02*
D03*
Y109449D02*
D03*
X163119Y105982D02*
D03*
Y107784D02*
D03*
X147930Y118948D02*
D03*
Y120750D02*
D03*
X158445Y145427D02*
D03*
Y143625D02*
D03*
X163805Y137822D02*
D03*
Y139624D02*
D03*
X148158Y153480D02*
D03*
Y155282D02*
D03*
D30*
X197460Y134925D02*
D03*
X197409Y138379D02*
D03*
Y141681D02*
D03*
D31*
X194109Y134925D02*
D03*
X194058Y138379D02*
D03*
Y141681D02*
D03*
D32*
X206033Y142138D02*
D03*
X207835D02*
D03*
X205945Y145821D02*
D03*
X207747D02*
D03*
X206084Y149860D02*
D03*
X207885D02*
D03*
D76*
X228575Y74879D02*
D03*
Y83579D02*
D03*
X150571Y106121D02*
D03*
Y114821D02*
D03*
X150673Y140100D02*
D03*
Y148800D02*
D03*
X228219Y115570D02*
D03*
Y106870D02*
D03*
X151206Y71425D02*
D03*
Y80125D02*
D03*
X228295Y122320D02*
D03*
Y131020D02*
D03*
X228346Y146666D02*
D03*
Y137966D02*
D03*
D77*
X128981Y141774D02*
D03*
Y143874D02*
D03*
X129565Y107052D02*
D03*
Y109152D02*
D03*
X130150Y73397D02*
D03*
Y75497D02*
D03*
X144323Y65142D02*
D03*
Y67242D02*
D03*
D78*
X139209Y136906D02*
D03*
X141309D02*
D03*
X139429Y101803D02*
D03*
X141529D02*
D03*
D79*
X223164Y151200D02*
D03*
Y153600D02*
D03*
D80*
X216738Y106872D02*
D03*
Y111872D02*
D03*
X217653Y151003D02*
D03*
Y146003D02*
D03*
X228549Y157262D02*
D03*
Y152262D02*
D03*
M02*
